<mxfile host="app.diagrams.net" modified="2022-05-26T10:47:20.782Z" agent="5.0 (Windows NT 10.0; Win64; x64) AppleWebKit/537.36 (KHTML, like Gecko) Chrome/101.0.4951.67 Safari/537.36" etag="5w7K_pNbLi_hLEBLky6w" version="18.1.2" type="github">
  <diagram id="prtHgNgQTEPvFCAcTncT" name="Page-1">
    <mxGraphModel dx="944" dy="490" grid="1" gridSize="10" guides="1" tooltips="1" connect="1" arrows="1" fold="1" page="1" pageScale="1" pageWidth="827" pageHeight="1169" math="0" shadow="0">
      <root>
        <mxCell id="0" />
        <mxCell id="1" parent="0" />
        <mxCell id="SS2KozXXjOR59APjWO3X-10" style="rounded=0;orthogonalLoop=1;jettySize=auto;html=1;exitX=1;exitY=0.5;exitDx=0;exitDy=0;entryX=0;entryY=0.5;entryDx=0;entryDy=0;edgeStyle=orthogonalEdgeStyle;" edge="1" parent="1" source="SS2KozXXjOR59APjWO3X-1" target="SS2KozXXjOR59APjWO3X-2">
          <mxGeometry relative="1" as="geometry">
            <mxPoint x="180" y="190" as="targetPoint" />
          </mxGeometry>
        </mxCell>
        <mxCell id="SS2KozXXjOR59APjWO3X-25" style="edgeStyle=orthogonalEdgeStyle;rounded=0;orthogonalLoop=1;jettySize=auto;html=1;entryX=0;entryY=0.5;entryDx=0;entryDy=0;" edge="1" parent="1" source="SS2KozXXjOR59APjWO3X-1" target="SS2KozXXjOR59APjWO3X-3">
          <mxGeometry relative="1" as="geometry" />
        </mxCell>
        <mxCell id="SS2KozXXjOR59APjWO3X-1" value="feature" style="rounded=0;whiteSpace=wrap;html=1;" vertex="1" parent="1">
          <mxGeometry x="40" y="120" width="100" height="50" as="geometry" />
        </mxCell>
        <mxCell id="SS2KozXXjOR59APjWO3X-26" style="edgeStyle=orthogonalEdgeStyle;rounded=0;orthogonalLoop=1;jettySize=auto;html=1;" edge="1" parent="1" source="SS2KozXXjOR59APjWO3X-2" target="SS2KozXXjOR59APjWO3X-27">
          <mxGeometry relative="1" as="geometry">
            <mxPoint x="400" y="220" as="targetPoint" />
          </mxGeometry>
        </mxCell>
        <mxCell id="SS2KozXXjOR59APjWO3X-2" value="matrial" style="rounded=0;whiteSpace=wrap;html=1;" vertex="1" parent="1">
          <mxGeometry x="210" y="160" width="120" height="60" as="geometry" />
        </mxCell>
        <mxCell id="SS2KozXXjOR59APjWO3X-3" value="mf6dat" style="rounded=0;whiteSpace=wrap;html=1;" vertex="1" parent="1">
          <mxGeometry x="210" y="260" width="120" height="60" as="geometry" />
        </mxCell>
        <mxCell id="SS2KozXXjOR59APjWO3X-22" value="bot" style="rounded=0;whiteSpace=wrap;html=1;" vertex="1" parent="1">
          <mxGeometry x="210" y="360" width="120" height="60" as="geometry" />
        </mxCell>
        <mxCell id="SS2KozXXjOR59APjWO3X-23" value="" style="rounded=0;whiteSpace=wrap;html=1;" vertex="1" parent="1">
          <mxGeometry x="210" y="440" width="120" height="60" as="geometry" />
        </mxCell>
        <mxCell id="SS2KozXXjOR59APjWO3X-30" style="edgeStyle=orthogonalEdgeStyle;rounded=0;orthogonalLoop=1;jettySize=auto;html=1;exitX=1;exitY=0.5;exitDx=0;exitDy=0;" edge="1" parent="1" source="SS2KozXXjOR59APjWO3X-27" target="SS2KozXXjOR59APjWO3X-31">
          <mxGeometry relative="1" as="geometry">
            <mxPoint x="570" y="240" as="targetPoint" />
          </mxGeometry>
        </mxCell>
        <mxCell id="SS2KozXXjOR59APjWO3X-33" style="edgeStyle=orthogonalEdgeStyle;rounded=0;orthogonalLoop=1;jettySize=auto;html=1;entryX=-0.004;entryY=0.651;entryDx=0;entryDy=0;entryPerimeter=0;" edge="1" parent="1" source="SS2KozXXjOR59APjWO3X-27" target="SS2KozXXjOR59APjWO3X-32">
          <mxGeometry relative="1" as="geometry">
            <Array as="points">
              <mxPoint x="540" y="210" />
              <mxPoint x="540" y="310" />
              <mxPoint x="570" y="310" />
            </Array>
          </mxGeometry>
        </mxCell>
        <mxCell id="SS2KozXXjOR59APjWO3X-27" value="hu" style="rounded=0;whiteSpace=wrap;html=1;" vertex="1" parent="1">
          <mxGeometry x="400" y="180" width="110" height="60" as="geometry" />
        </mxCell>
        <mxCell id="SS2KozXXjOR59APjWO3X-35" style="edgeStyle=orthogonalEdgeStyle;rounded=0;orthogonalLoop=1;jettySize=auto;html=1;entryX=0;entryY=0.5;entryDx=0;entryDy=0;" edge="1" parent="1" source="SS2KozXXjOR59APjWO3X-31" target="SS2KozXXjOR59APjWO3X-34">
          <mxGeometry relative="1" as="geometry" />
        </mxCell>
        <mxCell id="SS2KozXXjOR59APjWO3X-37" style="edgeStyle=orthogonalEdgeStyle;rounded=0;orthogonalLoop=1;jettySize=auto;html=1;entryX=0;entryY=0.75;entryDx=0;entryDy=0;" edge="1" parent="1" source="SS2KozXXjOR59APjWO3X-31" target="SS2KozXXjOR59APjWO3X-36">
          <mxGeometry relative="1" as="geometry">
            <Array as="points">
              <mxPoint x="730" y="230" />
              <mxPoint x="730" y="340" />
              <mxPoint x="770" y="340" />
            </Array>
          </mxGeometry>
        </mxCell>
        <mxCell id="SS2KozXXjOR59APjWO3X-31" value="it" style="rounded=0;whiteSpace=wrap;html=1;" vertex="1" parent="1">
          <mxGeometry x="570" y="200" width="120" height="60" as="geometry" />
        </mxCell>
        <mxCell id="SS2KozXXjOR59APjWO3X-32" value="medsin" style="rounded=0;whiteSpace=wrap;html=1;" vertex="1" parent="1">
          <mxGeometry x="570" y="280" width="120" height="60" as="geometry" />
        </mxCell>
        <mxCell id="SS2KozXXjOR59APjWO3X-38" style="edgeStyle=orthogonalEdgeStyle;rounded=0;orthogonalLoop=1;jettySize=auto;html=1;" edge="1" parent="1" source="SS2KozXXjOR59APjWO3X-34" target="SS2KozXXjOR59APjWO3X-39">
          <mxGeometry relative="1" as="geometry">
            <mxPoint x="970" y="280" as="targetPoint" />
          </mxGeometry>
        </mxCell>
        <mxCell id="SS2KozXXjOR59APjWO3X-41" style="edgeStyle=orthogonalEdgeStyle;rounded=0;orthogonalLoop=1;jettySize=auto;html=1;entryX=0;entryY=0.75;entryDx=0;entryDy=0;" edge="1" parent="1" source="SS2KozXXjOR59APjWO3X-34" target="SS2KozXXjOR59APjWO3X-40">
          <mxGeometry relative="1" as="geometry">
            <Array as="points">
              <mxPoint x="920" y="260" />
              <mxPoint x="920" y="350" />
              <mxPoint x="960" y="350" />
            </Array>
          </mxGeometry>
        </mxCell>
        <mxCell id="SS2KozXXjOR59APjWO3X-34" value="AI" style="rounded=0;whiteSpace=wrap;html=1;" vertex="1" parent="1">
          <mxGeometry x="770" y="230" width="110" height="60" as="geometry" />
        </mxCell>
        <mxCell id="SS2KozXXjOR59APjWO3X-36" value="ORG" style="rounded=0;whiteSpace=wrap;html=1;" vertex="1" parent="1">
          <mxGeometry x="770" y="310" width="120" height="60" as="geometry" />
        </mxCell>
        <mxCell id="SS2KozXXjOR59APjWO3X-39" value="ch" style="rounded=0;whiteSpace=wrap;html=1;" vertex="1" parent="1">
          <mxGeometry x="960" y="250" width="120" height="60" as="geometry" />
        </mxCell>
        <mxCell id="SS2KozXXjOR59APjWO3X-40" value="video" style="rounded=0;whiteSpace=wrap;html=1;" vertex="1" parent="1">
          <mxGeometry x="960" y="320" width="120" height="60" as="geometry" />
        </mxCell>
      </root>
    </mxGraphModel>
  </diagram>
</mxfile>
